<svg width="105" height="107" viewBox="0 0 105 107" fill="none" xmlns="http://www.w3.org/2000/svg">
<g id="Frame Header" clip-path="url(#clip0_113_1610)">
<g id="Group">
<path id="Vector" d="M71.5965 27.2334C72.0394 27.9504 72.97 28.1982 73.7146 27.7965C74.5166 27.3642 74.7896 26.3509 74.3126 25.5791C68.5446 16.2413 58.3046 10.5063 47.1966 10.5063C38.704 10.5063 30.7201 13.7887 24.7152 19.7493C18.7103 25.7098 15.4036 33.6347 15.4036 42.0647C15.4036 50.4947 18.7103 58.4196 24.7152 64.3801C30.7201 70.3407 38.704 73.6231 47.1966 73.6231C58.2514 73.6231 68.466 67.9293 74.2457 58.6568C74.7259 57.886 74.4571 56.8728 73.6562 56.4373C72.9137 56.0324 71.9821 56.277 71.5359 56.9919C66.3352 65.3365 57.1425 70.4598 47.1956 70.4598C31.4223 70.4598 18.5892 57.7216 18.5892 42.0647C18.5892 26.4078 31.4233 13.6696 47.1966 13.6696C57.1913 13.6696 66.4063 18.8298 71.5965 27.2334Z" fill="black"/>
<path id="Vector_2" d="M46.8971 30.5989C50.5863 30.5989 53.9674 32.287 56.1727 35.2298L59.5814 32.713C58.1421 30.7918 56.2502 29.1997 54.1098 28.1084C51.8961 26.9791 49.4008 26.3823 46.8971 26.3823C38.1846 26.3823 31.0962 33.4184 31.0962 42.0666C31.0962 50.7148 38.1846 57.7509 46.8971 57.7509C55.6097 57.7509 62.6949 50.718 62.6981 42.0719C62.6981 42.0719 62.6981 42.0719 62.6981 42.0708V39.8007H46.8971V44.3346H58.2217C57.1584 49.575 52.4856 53.5343 46.8971 53.5343C40.5279 53.5343 35.3452 48.3909 35.3452 42.0677C35.3452 35.7444 40.5268 30.601 46.8971 30.601V30.5989Z" fill="black"/>
<path id="Vector_3" d="M98.6541 67.8563C98.2844 67.4925 97.936 67.1499 97.5334 66.6374C94.7046 63.0472 94.1544 57.3239 95.8869 49.5993L96.0452 49.6172C96.4775 49.6657 96.8716 49.3547 96.9205 48.9255L97.1754 46.6954C99.0556 46.3633 100.852 45.4723 102.287 44.0183C105.956 40.3026 105.896 34.3167 102.153 30.6748C98.4098 27.0329 92.3794 27.0919 88.7104 30.8077C88.5829 30.9363 88.4608 31.0692 88.3418 31.2041C87.868 29.4928 87.2838 27.8079 86.5901 26.1556C84.4635 21.0861 81.4032 16.5279 77.4962 12.6065C73.5893 8.68519 69.0301 5.59789 63.9473 3.43109C58.6817 1.18626 53.0847 0.0327422 47.3093 5.56245e-05C41.5338 -0.0284133 35.9241 1.06079 30.6352 3.24762C25.5279 5.35854 20.9358 8.39629 16.9853 12.2744C13.0348 16.1525 9.92452 20.678 7.7416 25.7233C5.48114 30.949 4.31798 36.5046 4.28717 42.2374C4.2553 47.9702 5.35579 53.5385 7.5589 58.7884C9.68551 63.858 12.7459 68.4162 16.6528 72.3375C20.5597 76.2589 25.1189 79.3462 30.2018 81.513C35.4663 83.7568 41.0633 84.9103 46.8387 84.9419C46.9194 84.9419 47.0002 84.9419 47.0819 84.9419C52.7713 84.9419 58.2982 83.8495 63.5128 81.6933C68.6201 79.5824 73.2122 76.5446 77.1627 72.6665C81.1132 68.7884 84.2234 64.2629 86.4064 59.2176C88.3705 54.6784 89.5049 49.8903 89.7896 44.9536C90.6086 45.5651 91.503 46.0291 92.4389 46.3433L92.2052 48.393C92.1637 48.7558 92.3826 49.0911 92.7119 49.2155C91.7983 53.412 91.5094 57.1246 91.8568 60.2836C92.22 63.586 93.2855 66.3791 95.0233 68.5849C95.5502 69.2534 96.007 69.7036 96.4106 70.1011C96.826 70.5103 97.185 70.8624 97.5929 71.4297C100.355 75.2614 100.012 81.3622 96.5763 89.576C96.246 90.3658 96.605 91.2736 97.3932 91.6205L97.4113 91.6289C98.2249 91.9885 99.1767 91.6089 99.5177 90.7928C101.037 87.1551 102.007 83.8369 102.404 80.9088C103.028 76.3084 102.282 72.501 100.184 69.5898C99.6186 68.8053 99.1278 68.3224 98.653 67.8553L98.6541 67.8563ZM74.1746 69.6699C66.9067 76.8051 57.2933 80.7264 47.0798 80.7264C47.0076 80.7264 46.9343 80.7264 46.8621 80.7264C36.5678 80.6705 26.912 76.6385 19.6738 69.3736C12.4346 62.1088 8.47986 52.481 8.53616 42.2627C8.59246 32.0445 12.6545 22.4599 19.9734 15.2752C27.2413 8.14006 36.8546 4.21873 47.0681 4.21873C47.1404 4.21873 47.2137 4.21873 47.2859 4.21873C57.5801 4.27461 67.236 8.30666 74.4741 15.5715C81.7133 22.8364 85.6681 32.4641 85.6118 42.6824C85.5555 52.9006 81.4935 62.4852 74.1746 69.6699ZM91.4457 41.5152C90.342 40.4407 89.7248 39.0036 89.71 37.4694C89.694 35.9352 90.2825 34.4865 91.3649 33.3899C92.4973 32.2438 93.9972 31.6691 95.4992 31.6691C97.0012 31.6691 98.4257 32.2142 99.5506 33.3087C101.83 35.5261 101.866 39.1712 99.6324 41.434C99.0461 42.0287 98.3588 42.4673 97.6258 42.7541L97.7087 42.0329C97.7575 41.6037 97.4442 41.2125 97.0118 41.164L93.8687 40.8108C93.4363 40.7623 93.0422 41.0734 92.9934 41.5025L92.8755 42.5337C92.3624 42.2754 91.8801 41.9359 91.4478 41.5152H91.4457Z" fill="black"/>
</g>
<g id="Group_2">
<path id="Vector_4" d="M1.60075 89.6246C2.12975 89.0995 2.76816 88.8369 3.51811 88.8369C4.26805 88.8369 4.90647 89.0995 5.43546 89.6246C5.96446 90.1496 6.22896 90.7833 6.22896 91.5278C6.22896 92.2722 5.96446 92.9059 5.43546 93.431C4.90647 93.956 4.26805 94.2186 3.51811 94.2186C2.76816 94.2186 2.12975 93.956 1.60075 93.431C1.07175 92.9059 0.807251 92.2722 0.807251 91.5278C0.807251 90.7833 1.07175 90.1496 1.60075 89.6246ZM2.29758 92.7382C2.63325 93.0725 3.0401 93.2391 3.51811 93.2391C3.99612 93.2391 4.4019 93.0725 4.73863 92.7382C5.0743 92.405 5.2432 92.0012 5.2432 91.5267C5.2432 91.0522 5.07536 90.6494 4.73863 90.3152C4.4019 89.982 3.99612 89.8143 3.51811 89.8143C3.0401 89.8143 2.63432 89.9809 2.29758 90.3152C1.96085 90.6494 1.79302 91.0522 1.79302 91.5267C1.79302 92.0012 1.96085 92.404 2.29758 92.7382Z" fill="black"/>
<path id="Vector_5" d="M11.3787 88.96C12.0309 88.96 12.5217 89.115 12.8531 89.426C13.1845 89.7371 13.3492 90.1525 13.3492 90.6713C13.3492 91.1352 13.193 91.5359 12.8797 91.8754C12.5663 92.2139 12.1478 92.3836 11.6251 92.3836H10.5162V94.0949H9.5304V88.96H11.3776H11.3787ZM11.5019 91.4051C11.7431 91.4051 11.947 91.3366 12.1138 91.1985C12.2806 91.0614 12.3645 90.8853 12.3645 90.6713C12.3645 90.4372 12.2837 90.2558 12.1223 90.1282C11.9608 90.0007 11.7537 89.9374 11.503 89.9374H10.5172V91.4051H11.503H11.5019Z" fill="black"/>
<path id="Vector_6" d="M16.4669 88.96H20.1624V89.9384H18.807V94.096H17.8212V89.9384H16.4658V88.96H16.4669Z" fill="black"/>
<path id="Vector_7" d="M24.5124 94.0949H23.5266V88.96H24.5124V94.0949Z" fill="black"/>
<path id="Vector_8" d="M30.5874 93.2389C31.1005 93.2389 31.5296 93.0629 31.8727 92.7117L32.2498 93.5985C32.0342 93.7925 31.775 93.9433 31.4723 94.0529C31.1695 94.1626 30.8689 94.2174 30.5715 94.2174C29.812 94.2174 29.1629 93.9538 28.6233 93.4266C28.0837 92.8994 27.8149 92.2668 27.8149 91.5276C27.8149 90.7885 28.0848 90.1559 28.6233 89.6287C29.1619 89.1014 29.812 88.8378 30.5715 88.8378C30.8689 88.8378 31.1695 88.8916 31.4723 88.9981C31.775 89.1046 32.0342 89.2554 32.2498 89.4494L31.8727 90.3362C31.5137 89.9893 31.0845 89.8163 30.5874 89.8163C30.0903 89.8163 29.6739 89.9829 29.3244 90.3172C28.9749 90.6514 28.8007 91.0542 28.8007 91.5287C28.8007 92.0032 28.9749 92.406 29.3244 92.7402C29.6739 93.0744 30.0945 93.241 30.5874 93.241V93.2389ZM30.8955 87.3701H31.758L30.6798 88.4709H30.2411L29.1714 87.3701H30.034L30.4652 87.9279L30.8965 87.3701H30.8955Z" fill="black"/>
<path id="Vector_9" d="M37.4007 91.4125L39.7408 94.0949H38.4937L36.5381 91.8532V94.0949H35.5524V88.96H36.5381V91.0899L38.3705 88.96H39.6176L37.4007 91.4125Z" fill="black"/>
<path id="Vector_10" d="M43.9058 94.0949H42.92V88.96H43.9058V94.0949Z" fill="black"/>
<path id="Vector_11" d="M55.0073 93.239C55.5204 93.239 55.9495 93.0629 56.2927 92.7118L56.6697 93.5985C56.4541 93.7925 56.1949 93.9433 55.8922 94.053C55.5894 94.1626 55.2888 94.2175 54.9914 94.2175C54.2319 94.2175 53.5829 93.9539 53.0432 93.4267C52.5036 92.8995 52.2349 92.2668 52.2349 91.5277C52.2349 90.7885 52.5047 90.1559 53.0432 89.6287C53.5818 89.1015 54.2319 88.8379 54.9914 88.8379C55.2888 88.8379 55.5894 88.8917 55.8922 88.9982C56.1949 89.1047 56.4541 89.2554 56.6697 89.4495L56.2927 90.3362C55.9336 89.9893 55.5045 89.8164 55.0073 89.8164C54.5102 89.8164 54.0938 89.983 53.7443 90.3172C53.3948 90.6515 53.2206 91.0543 53.2206 91.5287C53.2206 92.0032 53.3948 92.406 53.7443 92.7402C54.0938 93.0745 54.5145 93.2411 55.0073 93.2411V93.239Z" fill="black"/>
<path id="Vector_12" d="M63.1761 89.9378H60.9592V91.0386H62.8064V92.0171H60.9592V93.1179H63.1761V94.0964H59.9734V88.9614H63.1761V89.9399V89.9378Z" fill="black"/>
<path id="Vector_13" d="M70.2369 88.96H71.2227V94.0949H70.2369L67.6503 90.549V94.0949H66.6646V88.96H67.6408L70.2369 92.5186V88.96Z" fill="black"/>
<path id="Vector_14" d="M74.5868 88.96H78.2823V89.9384H76.9269V94.096H75.9411V89.9384H74.5857V88.96H74.5868Z" fill="black"/>
<path id="Vector_15" d="M84.7195 94.0949L84.3073 93.1164H82.015L81.6305 94.0949H80.5215L82.6619 88.96H83.5553L85.7116 94.0949H84.7205H84.7195ZM82.408 92.139H83.8962L83.124 90.3054L82.408 92.139Z" fill="black"/>
<path id="Vector_16" d="M92.7713 94.0949H91.5699L90.4078 92.3836H89.8151V94.0949H88.8293V88.96H90.6766C91.3288 88.96 91.8196 89.115 92.151 89.426C92.4824 89.7371 92.6471 90.1525 92.6471 90.6713C92.6471 91.0435 92.5419 91.3809 92.3316 91.6835C92.1213 91.9872 91.8313 92.1938 91.4616 92.3066L92.7703 94.0949H92.7713ZM89.8151 89.9374V91.4051H90.8009C91.042 91.4051 91.246 91.3366 91.4127 91.1985C91.5795 91.0614 91.6634 90.8853 91.6634 90.6713C91.6634 90.4372 91.5827 90.2558 91.4212 90.1282C91.2598 90.0007 91.0526 89.9374 90.8019 89.9374H89.8162H89.8151Z" fill="black"/>
</g>
<g id="Group_3">
<path id="Vector_17" d="M8.95687 101.702C9.00786 101.982 9.03335 102.254 9.03335 102.517C9.03335 103.765 8.61377 104.824 7.77565 105.695C6.93754 106.566 5.88485 107 4.61865 107C3.35245 107 2.25515 106.563 1.3533 105.689C0.450393 104.815 0 103.757 0 102.517C0 101.277 0.451455 100.221 1.3533 99.3454C2.25621 98.4713 3.34396 98.0337 4.61865 98.0337C5.50775 98.0337 6.29488 98.252 6.98003 98.6895C7.66412 99.1271 8.20693 99.7239 8.60952 100.479L6.28744 101.103C5.85936 100.552 5.3038 100.275 4.61972 100.275C4.02061 100.275 3.51179 100.494 3.09327 100.931C2.67368 101.369 2.46441 101.897 2.46441 102.517C2.46441 103.137 2.67368 103.665 3.09327 104.103C3.51179 104.54 4.02167 104.759 4.61972 104.759C5.03824 104.759 5.41321 104.648 5.74251 104.428C6.07181 104.207 6.32144 103.91 6.49352 103.536H4.10665V101.702H8.95687Z" fill="black"/>
<path id="Vector_18" d="M12.2159 106.796L8.72534 98.2368H11.5998L13.447 103.357L15.2943 98.2368H18.1687L14.6782 106.796H12.2148H12.2159Z" fill="black"/>
<path id="Vector_19" d="M19.2468 99.3463C20.171 98.4722 21.2832 98.0347 22.5833 98.0347C23.8835 98.0347 24.9957 98.4722 25.9199 99.3463C26.844 100.222 27.3061 101.278 27.3061 102.518C27.3061 103.758 26.844 104.814 25.9199 105.69C24.9957 106.565 23.8835 107.001 22.5833 107.001C21.2832 107.001 20.171 106.564 19.2468 105.69C18.3227 104.816 17.8606 103.758 17.8606 102.518C17.8606 101.278 18.3227 100.222 19.2468 99.3463ZM20.9857 104.104C21.4266 104.541 21.9587 104.76 22.5833 104.76C23.208 104.76 23.7401 104.541 24.181 104.104C24.6218 103.666 24.8417 103.138 24.8417 102.518C24.8417 101.898 24.6218 101.37 24.181 100.932C23.7401 100.495 23.208 100.276 22.5833 100.276C21.9587 100.276 21.4266 100.495 20.9857 100.932C20.5449 101.37 20.325 101.898 20.325 102.518C20.325 103.138 20.5449 103.666 20.9857 104.104Z" fill="black"/>
<path id="Vector_20" d="M34.796 106.797H27.4081L31.0038 100.48H27.6163V98.2383H35.0042L31.4085 104.555H34.796V106.797Z" fill="black"/>
<path id="Vector_21" d="M39.5082 98.2383C40.9369 98.2383 42.0491 98.6421 42.8447 99.4487C43.6403 100.255 44.0376 101.279 44.0376 102.518C44.0376 103.757 43.6329 104.77 42.8245 105.581C42.0161 106.392 40.9103 106.798 39.5071 106.798H36.0293V98.2383H39.5071H39.5082ZM39.7259 104.555C40.171 104.555 40.5895 104.352 40.9836 103.944C41.3767 103.536 41.5742 103.061 41.5742 102.517C41.5742 101.973 41.3777 101.499 40.9836 101.09C40.5895 100.682 40.171 100.479 39.7259 100.479H38.4937V104.554H39.7259V104.555Z" fill="black"/>
<path id="Vector_22" d="M49.709 98.2383L53.1071 106.798H50.7744L50.2221 105.371H46.8866L46.3353 106.798H43.8326L47.3997 98.2383H49.709ZM47.6142 103.537H49.5125L48.5639 101.087L47.6142 103.537Z" fill="black"/>
<path id="Vector_23" d="M59.641 98.2383H62.1044V106.798H59.641L56.3565 102.111V106.798H53.8932V98.2383H56.3565L59.641 102.925V98.2383Z" fill="black"/>
<path id="Vector_24" d="M64.4137 99.3463C65.3379 98.4722 66.45 98.0347 67.7502 98.0347C69.0504 98.0347 70.1626 98.4722 71.0867 99.3463C72.0109 100.222 72.473 101.278 72.473 102.518C72.473 103.758 72.0109 104.814 71.0867 105.69C70.1626 106.565 69.0504 107.001 67.7502 107.001C66.45 107.001 65.3379 106.564 64.4137 105.69C63.4895 104.816 63.0275 103.758 63.0275 102.518C63.0275 101.278 63.4895 100.222 64.4137 99.3463ZM66.1526 104.104C66.5934 104.541 67.1256 104.76 67.7502 104.76C68.3748 104.76 68.907 104.541 69.3478 104.104C69.7887 103.666 70.0086 103.138 70.0086 102.518C70.0086 101.898 69.7887 101.37 69.3478 100.932C68.907 100.495 68.3748 100.276 67.7502 100.276C67.1256 100.276 66.5934 100.495 66.1526 100.932C65.7118 101.37 65.4919 101.898 65.4919 102.518C65.4919 103.138 65.7118 103.666 66.1526 104.104Z" fill="black"/>
<path id="Vector_25" d="M75.6544 106.796L72.1638 98.2368H75.0383L76.8855 103.357L78.7328 98.2368H81.6072L78.1167 106.796H75.6533H75.6544Z" fill="black"/>
<path id="Vector_26" d="M84.6877 106.796H82.2244V98.2368H84.6877V106.796Z" fill="black"/>
<path id="Vector_27" d="M90.5258 104.759C91.3129 104.759 91.963 104.47 92.4761 103.893L93.413 105.969C93.0369 106.292 92.5812 106.545 92.0469 106.727C91.5126 106.909 90.9836 107.001 90.462 107.001C89.1279 107.001 87.9859 106.562 87.0363 105.683C86.0866 104.805 85.6118 103.749 85.6118 102.518C85.6118 101.286 86.0866 100.232 87.0363 99.3526C87.9859 98.4743 89.1279 98.0346 90.462 98.0346C90.9836 98.0346 91.5115 98.1242 92.0469 98.3024C92.5812 98.4806 93.0369 98.7315 93.413 99.0542L92.4761 101.143C91.963 100.565 91.3129 100.277 90.5258 100.277C89.8502 100.277 89.2723 100.496 88.7932 100.933C88.3142 101.371 88.0752 101.899 88.0752 102.519C88.0752 103.139 88.3142 103.667 88.7932 104.105C89.2723 104.542 89.8491 104.761 90.5258 104.761V104.759ZM89.1013 97.422L90.3335 95.3838H92.7969L90.7435 97.422H89.1013Z" fill="black"/>
</g>
</g>
<defs>
<clipPath id="clip0_113_1610">
<rect width="105" height="107" fill="white"/>
</clipPath>
</defs>
</svg>
