<svg width="92" height="84" viewBox="0 0 92 84" fill="none" xmlns="http://www.w3.org/2000/svg">
<g id="Group">
<path id="Vector" d="M61.295 24.8001C61.6984 25.4531 62.5457 25.6787 63.2238 25.3129C63.9542 24.9192 64.2028 23.9965 63.7684 23.2936C58.5159 14.7903 49.1909 9.56787 39.0757 9.56787C31.3419 9.56787 24.0716 12.5569 18.6033 17.9848C13.135 23.4127 10.1238 30.6294 10.1238 38.306C10.1238 45.9826 13.135 53.1993 18.6033 58.6272C24.0716 64.0551 31.3419 67.0442 39.0757 67.0442C49.1426 67.0442 58.4443 61.8592 63.7075 53.4154C64.1447 52.7135 63.9 51.7908 63.1706 51.3942C62.4945 51.0255 61.6461 51.2483 61.2399 51.8993C56.5039 59.4981 48.1327 64.1636 39.0747 64.1636C24.711 64.1636 13.0248 52.5637 13.0248 38.306C13.0248 24.0483 24.7119 12.4484 39.0757 12.4484C48.1772 12.4484 56.5687 17.1475 61.295 24.8001Z" fill="black"/>
<path id="Vector_2" d="M38.8027 27.8647C42.1622 27.8647 45.2412 29.4019 47.2493 32.0818L50.3535 29.7898C49.0428 28.0404 47.32 26.5905 45.3708 25.5967C43.3549 24.5684 41.0827 24.0249 38.8027 24.0249C30.8687 24.0249 24.4138 30.4322 24.4138 38.3076C24.4138 46.1829 30.8687 52.5902 38.8027 52.5902C46.7367 52.5902 53.1887 46.1858 53.1916 38.3124C53.1916 38.3124 53.1916 38.3124 53.1916 38.3114V36.2441H38.8027V40.3729H49.1153C48.147 45.145 43.8918 48.7505 38.8027 48.7505C33.0027 48.7505 28.2831 44.0667 28.2831 38.3085C28.2831 32.5503 33.0017 27.8666 38.8027 27.8666V27.8647Z" fill="black"/>
<path id="Vector_3" d="M85.9344 61.7928C85.5978 61.4615 85.2805 61.1495 84.9139 60.6828C82.3379 57.4134 81.8369 52.2016 83.4146 45.1673L83.5587 45.1836C83.9524 45.2278 84.3113 44.9445 84.3558 44.5537L84.5879 42.523C86.3001 42.2205 87.9358 41.4091 89.2427 40.0851C92.5838 36.7014 92.5296 31.2505 89.1208 27.934C85.7119 24.6175 80.2205 24.6713 76.8793 28.055C76.7633 28.1721 76.652 28.2931 76.5437 28.416C76.1123 26.8576 75.5802 25.3233 74.9486 23.8187C73.012 19.2021 70.2251 15.0513 66.6673 11.4804C63.1095 7.90948 58.9578 5.09808 54.3292 3.12492C49.5342 1.0807 44.4374 0.0302608 39.178 0.0004953C33.9187 -0.0254295 28.8103 0.966435 23.994 2.95784C19.3431 4.88012 15.1614 7.6464 11.564 11.1779C7.96649 14.7095 5.13418 18.8306 3.14634 23.425C1.08788 28.1837 0.0286649 33.2428 0.00061259 38.4633C-0.028407 43.6838 0.973737 48.7545 2.97996 53.5352C4.91653 58.1518 7.70338 62.3026 11.2612 65.8735C14.819 69.4444 18.9707 72.2558 23.5994 74.229C28.3934 76.2723 33.4902 77.3227 38.7495 77.3515C38.823 77.3515 38.8965 77.3515 38.971 77.3515C44.152 77.3515 49.185 76.3568 53.9335 74.3932C58.5844 72.4709 62.7661 69.7046 66.3636 66.1731C69.9611 62.6416 72.7934 58.5205 74.7812 53.926C76.5698 49.7925 77.6029 45.4323 77.8621 40.9367C78.6079 41.4936 79.4224 41.9161 80.2746 42.2023L80.0618 44.0688C80.0241 44.3991 80.2234 44.7045 80.5232 44.8178C79.6913 48.6393 79.4282 52.0201 79.7445 54.8968C80.0754 57.9041 81.0456 60.4476 82.6281 62.4563C83.1079 63.065 83.5239 63.475 83.8914 63.837C84.2697 64.2095 84.5966 64.5302 84.9681 65.0468C87.4831 68.5361 87.1707 74.0917 84.0423 81.5715C83.7415 82.2907 84.0685 83.1174 84.7862 83.4333L84.8027 83.441C85.5436 83.7684 86.4103 83.4227 86.7208 82.6795C88.1041 79.3669 88.9873 76.3452 89.3491 73.6788C89.9178 69.4896 89.2378 66.0224 87.3274 63.3713C86.8127 62.6569 86.3658 62.2172 85.9334 61.7918L85.9344 61.7928ZM63.6425 63.4443C57.0241 69.9418 48.2699 73.5127 38.9691 73.5127C38.9033 73.5127 38.8366 73.5127 38.7708 73.5127C29.3965 73.4618 20.6036 69.7901 14.0122 63.1745C7.41996 56.5588 3.81862 47.7915 3.86989 38.4864C3.92116 29.1813 7.62019 20.4533 14.285 13.9106C20.9034 7.41307 29.6577 3.84217 38.9585 3.84217C39.0242 3.84217 39.091 3.84217 39.1568 3.84217C48.5311 3.89306 57.324 7.56478 63.9153 14.1804C70.5076 20.796 74.1089 29.5634 74.0577 38.8685C74.0064 48.1736 70.3074 56.9016 63.6425 63.4443ZM79.3702 37.8056C78.3651 36.8272 77.8031 35.5185 77.7896 34.1214C77.7751 32.7243 78.311 31.4051 79.2967 30.4065C80.3278 29.3628 81.6937 28.8395 83.0615 28.8395C84.4293 28.8395 85.7264 29.3359 86.7508 30.3325C88.8267 32.3518 88.8596 35.6711 86.8253 37.7317C86.2914 38.2732 85.6655 38.6726 84.9981 38.9338L85.0735 38.277C85.118 37.8863 84.8326 37.53 84.4389 37.4859L81.5766 37.1642C81.1829 37.12 80.8241 37.4033 80.7796 37.7941L80.6722 38.7331C80.205 38.4979 79.7658 38.1887 79.3721 37.8056H79.3702Z" fill="black"/>
</g>
</svg>
