<svg width="157" height="162" viewBox="0 0 157 162" fill="none" xmlns="http://www.w3.org/2000/svg">
<g id="Layer_1" clip-path="url(#clip0_121_3699)">
<g id="Group">
<path id="Vector" d="M107.054 41.6973C107.716 42.7761 109.108 43.149 110.221 42.5445C111.42 41.894 111.828 40.3694 111.115 39.208C102.491 25.1577 87.1794 16.5285 70.5704 16.5285C57.8719 16.5285 45.9341 21.4674 36.9554 30.4361C27.9766 39.4048 23.0322 51.3292 23.0322 64.0135C23.0322 76.6979 27.9766 88.6223 36.9554 97.5909C45.9341 106.56 57.8719 111.499 70.5704 111.499C87.1 111.499 102.373 102.931 111.015 88.9792C111.733 87.8195 111.331 86.2948 110.134 85.6396C109.024 85.0303 107.631 85.3984 106.963 86.4741C99.1871 99.0299 85.4418 106.739 70.5689 106.739C46.984 106.739 27.7956 87.572 27.7956 64.0135C27.7956 40.455 46.9856 21.2881 70.5704 21.2881C85.5149 21.2881 99.2935 29.0526 107.054 41.6973Z" fill="white"/>
<path id="Vector_2" d="M70.1225 46.7615C75.6387 46.7615 80.6943 49.3015 83.9916 53.7295L89.0886 49.9425C86.9364 47.0518 84.1076 44.6562 80.9072 43.0141C77.5971 41.3149 73.8662 40.4169 70.1225 40.4169C57.0952 40.4169 46.4963 51.0039 46.4963 64.0166C46.4963 77.0294 57.0952 87.6164 70.1225 87.6164C83.1498 87.6164 93.7439 77.0342 93.7487 64.0246C93.7487 64.0246 93.7487 64.0246 93.7487 64.023V60.6072H70.1225V67.4293H87.0555C85.4656 75.3144 78.4786 81.2718 70.1225 81.2718C60.599 81.2718 52.8496 73.5327 52.8496 64.0182C52.8496 54.5038 60.5974 46.7647 70.1225 46.7647V46.7615Z" fill="white"/>
<path id="Vector_3" d="M147.511 102.822C146.959 102.274 146.438 101.759 145.836 100.988C141.606 95.5855 140.783 86.9738 143.374 75.3509L143.611 75.3778C144.257 75.4508 144.846 74.9828 144.919 74.3371L145.301 70.9815C148.112 70.4818 150.798 69.1412 152.943 66.9533C158.43 61.3624 158.341 52.3556 152.743 46.8757C147.146 41.3958 138.129 41.4847 132.643 47.0756C132.453 47.2692 132.27 47.4691 132.092 47.6722C131.384 45.0972 130.51 42.5619 129.473 40.0758C126.293 32.4478 121.717 25.5892 115.875 19.6889C110.034 13.7885 103.217 9.14316 95.6165 5.88283C87.7432 2.50509 79.3744 0.769422 70.7387 0.72024C62.1031 0.677403 53.7152 2.31629 45.807 5.60677C38.1703 8.78301 31.3041 13.3538 25.3971 19.1891C19.4902 25.0244 14.8396 31.8338 11.5756 39.4254C8.19569 47.2882 6.45649 55.6477 6.41043 64.2737C6.36278 72.8997 8.00827 81.2782 11.3024 89.1775C14.4822 96.8056 19.0582 103.664 24.9 109.564C30.7418 115.465 37.5588 120.11 45.1589 123.371C53.0306 126.747 61.3994 128.482 70.0351 128.53C70.1558 128.53 70.2765 128.53 70.3988 128.53C78.9058 128.53 87.1698 126.886 94.9668 123.642C102.603 120.466 109.47 115.895 115.377 110.059C121.284 104.224 125.934 97.4148 129.198 89.8232C132.135 82.9932 133.831 75.7887 134.257 68.3606C135.482 69.2808 136.819 69.9789 138.218 70.4516L137.869 73.5359C137.807 74.0816 138.134 74.5862 138.626 74.7734C137.26 81.0878 136.828 86.674 137.348 91.4272C137.891 96.3962 139.484 100.599 142.083 103.918C142.87 104.924 143.553 105.601 144.157 106.199C144.778 106.815 145.315 107.345 145.925 108.198C150.054 113.964 149.541 123.144 144.405 135.503C143.911 136.691 144.448 138.057 145.626 138.579L145.653 138.592C146.87 139.133 148.293 138.562 148.803 137.334C151.074 131.86 152.524 126.867 153.118 122.461C154.052 115.539 152.936 109.81 149.799 105.43C148.954 104.25 148.22 103.523 147.51 102.82L147.511 102.822ZM110.909 105.551C100.042 116.287 85.6673 122.187 70.3956 122.187C70.2876 122.187 70.178 122.187 70.07 122.187C54.6777 122.103 40.2399 116.036 29.4172 105.105C18.5928 94.1735 12.6795 79.6869 12.7637 64.3117C12.8479 48.9366 18.9216 34.515 29.8651 23.7044C40.7323 12.9683 55.1065 7.06797 70.3782 7.06797C70.4862 7.06797 70.5958 7.06797 70.7038 7.06797C86.0961 7.15205 100.534 13.219 111.357 24.1502C122.181 35.0814 128.094 49.5681 128.01 64.9432C127.926 80.3183 121.852 94.7399 110.909 105.551ZM136.733 63.1869C135.083 61.5702 134.16 59.4078 134.138 57.0994C134.114 54.7909 134.994 52.611 136.612 50.9611C138.306 49.2365 140.548 48.3718 142.794 48.3718C145.04 48.3718 147.17 49.1921 148.852 50.8389C152.26 54.1754 152.314 59.66 148.974 63.0647C148.098 63.9595 147.07 64.6195 145.974 65.0511L146.098 63.9659C146.171 63.3202 145.702 62.7316 145.056 62.6586L140.356 62.1271C139.71 62.0541 139.12 62.5221 139.047 63.1679L138.871 64.7195C138.104 64.3308 137.383 63.8199 136.736 63.1869H136.733Z" fill="white"/>
</g>
<g id="Group_2">
<path id="Vector_4" d="M2.3935 135.576C3.18448 134.786 4.13906 134.391 5.26041 134.391C6.38176 134.391 7.33633 134.786 8.12731 135.576C8.91829 136.366 9.31378 137.319 9.31378 138.439C9.31378 139.559 8.91829 140.513 8.12731 141.303C7.33633 142.093 6.38176 142.488 5.26041 142.488C4.13906 142.488 3.18448 142.093 2.3935 141.303C1.60252 140.513 1.20703 139.559 1.20703 138.439C1.20703 137.319 1.60252 136.366 2.3935 135.576ZM3.43543 140.261C3.93734 140.764 4.54567 141.014 5.26041 141.014C5.97515 141.014 6.58188 140.764 7.08538 140.261C7.58729 139.759 7.83983 139.152 7.83983 138.438C7.83983 137.724 7.58887 137.118 7.08538 136.615C6.58188 136.114 5.97515 135.861 5.26041 135.861C4.54567 135.861 3.93893 136.112 3.43543 136.615C2.93194 137.118 2.68099 137.724 2.68099 138.438C2.68099 139.152 2.93194 139.758 3.43543 140.261Z" fill="white"/>
<path id="Vector_5" d="M17.0139 134.576C17.9891 134.576 18.7229 134.809 19.2185 135.277C19.714 135.745 19.9602 136.371 19.9602 137.151C19.9602 137.849 19.7267 138.452 19.2582 138.963C18.7896 139.472 18.1638 139.728 17.3824 139.728H15.7242V142.303H14.2502V134.576H17.0123H17.0139ZM17.1982 138.255C17.5587 138.255 17.8637 138.152 18.113 137.944C18.3624 137.738 18.4879 137.473 18.4879 137.151C18.4879 136.799 18.3672 136.526 18.1257 136.334C17.8843 136.142 17.5746 136.047 17.1997 136.047H15.7258V138.255H17.1997H17.1982Z" fill="white"/>
<path id="Vector_6" d="M24.622 134.576H30.1477V136.049H28.121V142.304H26.6471V136.049H24.6204V134.576H24.622Z" fill="white"/>
<path id="Vector_7" d="M36.6519 142.303H35.178V134.576H36.6519V142.303Z" fill="white"/>
<path id="Vector_8" d="M45.7353 141.014C46.5025 141.014 47.1442 140.749 47.6572 140.221L48.2211 141.555C47.8986 141.847 47.5111 142.074 47.0584 142.239C46.6057 142.404 46.1562 142.487 45.7115 142.487C44.5759 142.487 43.6054 142.09 42.7985 141.297C41.9917 140.503 41.5898 139.552 41.5898 138.439C41.5898 137.327 41.9933 136.375 42.7985 135.582C43.6038 134.789 44.5759 134.392 45.7115 134.392C46.1562 134.392 46.6057 134.473 47.0584 134.633C47.5111 134.794 47.8986 135.02 48.2211 135.312L47.6572 136.647C47.1203 136.125 46.4787 135.864 45.7353 135.864C44.992 135.864 44.3694 136.115 43.8468 136.618C43.3243 137.121 43.0638 137.727 43.0638 138.441C43.0638 139.155 43.3243 139.761 43.8468 140.264C44.3694 140.767 44.9984 141.018 45.7353 141.018V141.014ZM46.196 132.184H47.4857L45.8735 133.84H45.2176L43.6181 132.184H44.9078L45.5527 133.023L46.1975 132.184H46.196Z" fill="white"/>
<path id="Vector_9" d="M55.9228 138.266L59.4219 142.303H57.5572L54.6331 138.93V142.303H53.1592V134.576H54.6331V137.781L57.373 134.576H59.2377L55.9228 138.266Z" fill="white"/>
<path id="Vector_10" d="M65.6497 142.303H64.1758V134.576H65.6497V142.303Z" fill="white"/>
<path id="Vector_11" d="M82.249 141.014C83.0162 141.014 83.6578 140.749 84.1709 140.221L84.7347 141.555C84.4123 141.847 84.0247 142.074 83.5721 142.239C83.1194 142.404 82.6699 142.487 82.2252 142.487C81.0895 142.487 80.1191 142.09 79.3122 141.297C78.5054 140.503 78.1035 139.552 78.1035 138.439C78.1035 137.327 78.5069 136.375 79.3122 135.582C80.1175 134.789 81.0895 134.392 82.2252 134.392C82.6699 134.392 83.1194 134.473 83.5721 134.633C84.0247 134.794 84.4123 135.02 84.7347 135.312L84.1709 136.647C83.634 136.125 82.9923 135.864 82.249 135.864C81.5057 135.864 80.8831 136.115 80.3605 136.618C79.838 137.121 79.5775 137.727 79.5775 138.441C79.5775 139.155 79.838 139.761 80.3605 140.264C80.8831 140.767 81.512 141.018 82.249 141.018V141.014Z" fill="white"/>
<path id="Vector_12" d="M94.4633 136.047H91.1485V137.703H93.9106V139.176H91.1485V140.832H94.4633V142.304H89.6746V134.578H94.4633V136.05V136.047Z" fill="white"/>
<path id="Vector_13" d="M105.021 134.576H106.495V142.303H105.021L101.153 136.967V142.303H99.6792V134.576H101.139L105.021 139.931V134.576Z" fill="white"/>
<path id="Vector_14" d="M111.525 134.576H117.051V136.049H115.024V142.304H113.55V136.049H111.523V134.576H111.525Z" fill="white"/>
<path id="Vector_15" d="M126.676 142.303L126.06 140.83H122.632L122.057 142.303H120.399L123.599 134.576H124.935L128.159 142.303H126.678H126.676ZM123.22 139.36H125.445L124.29 136.601L123.22 139.36Z" fill="white"/>
<path id="Vector_16" d="M138.715 142.303H136.919L135.181 139.728H134.295V142.303H132.821V134.576H135.583C136.558 134.576 137.292 134.809 137.788 135.277C138.283 135.745 138.529 136.371 138.529 137.151C138.529 137.711 138.372 138.219 138.058 138.674C137.743 139.131 137.31 139.442 136.757 139.612L138.714 142.303H138.715ZM134.295 136.047V138.255H135.769C136.13 138.255 136.434 138.152 136.684 137.944C136.933 137.738 137.059 137.473 137.059 137.151C137.059 136.799 136.938 136.526 136.697 136.334C136.455 136.142 136.145 136.047 135.771 136.047H134.297H134.295Z" fill="white"/>
</g>
<g id="Group_3">
<path id="Vector_17" d="M13.3927 153.748C13.4689 154.17 13.507 154.579 13.507 154.974C13.507 156.853 12.8796 158.446 11.6265 159.756C10.3733 161.067 8.79926 161.72 6.90599 161.72C5.01272 161.72 3.37199 161.062 2.02351 159.747C0.673445 158.431 0 156.84 0 154.974C0 153.108 0.675033 151.519 2.02351 150.202C3.37358 148.887 5.00001 148.228 6.90599 148.228C8.2354 148.228 9.41234 148.557 10.4368 149.215C11.4597 149.874 12.2713 150.772 12.8733 151.907L9.40123 152.847C8.76114 152.017 7.93045 151.601 6.90757 151.601C6.01177 151.601 5.25096 151.93 4.62517 152.588C3.99778 153.247 3.68489 154.041 3.68489 154.974C3.68489 155.907 3.99778 156.702 4.62517 157.36C5.25096 158.019 6.01335 158.347 6.90757 158.347C7.53337 158.347 8.09404 158.181 8.58642 157.849C9.0788 157.517 9.45205 157.07 9.70936 156.507H6.14042V153.748H13.3927Z" fill="white"/>
<path id="Vector_18" d="M18.2656 161.414L13.0464 148.535H17.3444L20.1064 156.239L22.8685 148.535H27.1665L21.9473 161.414H18.264H18.2656Z" fill="white"/>
<path id="Vector_19" d="M28.7786 150.204C30.1604 148.888 31.8234 148.23 33.7675 148.23C35.7115 148.23 37.3745 148.888 38.7563 150.204C40.1382 151.52 40.8291 153.11 40.8291 154.976C40.8291 156.842 40.1382 158.431 38.7563 159.748C37.3745 161.065 35.7115 161.722 33.7675 161.722C31.8234 161.722 30.1604 161.063 28.7786 159.748C27.3967 158.433 26.7058 156.842 26.7058 154.976C26.7058 153.11 27.3967 151.52 28.7786 150.204ZM31.3786 157.362C32.0378 158.02 32.8335 158.349 33.7675 158.349C34.7014 158.349 35.4971 158.02 36.1563 157.362C36.8154 156.704 37.1442 155.909 37.1442 154.976C37.1442 154.043 36.8154 153.248 36.1563 152.59C35.4971 151.931 34.7014 151.603 33.7675 151.603C32.8335 151.603 32.0378 151.931 31.3786 152.59C30.7195 153.248 30.3907 154.043 30.3907 154.976C30.3907 155.909 30.7195 156.704 31.3786 157.362Z" fill="white"/>
<path id="Vector_20" d="M52.0284 161.414H40.9817L46.3581 151.909H41.293V148.536H52.3397L46.9633 158.041H52.0284V161.414Z" fill="white"/>
<path id="Vector_21" d="M59.074 148.536C61.2103 148.536 62.8733 149.144 64.0629 150.357C65.2526 151.571 65.8466 153.112 65.8466 154.976C65.8466 156.84 65.2415 158.365 64.0328 159.585C62.824 160.805 61.1706 161.416 59.0725 161.416H53.8723V148.536H59.0725H59.074ZM59.3996 158.041C60.0652 158.041 60.6909 157.735 61.2802 157.121C61.8679 156.507 62.1633 155.793 62.1633 154.974C62.1633 154.156 61.8695 153.442 61.2802 152.828C60.6909 152.214 60.0652 151.907 59.3996 151.907H57.5572V158.039H59.3996V158.041Z" fill="white"/>
<path id="Vector_22" d="M74.3266 148.536L79.4076 161.416H75.9197L75.0937 159.269H70.1064L69.2821 161.416H65.54L70.8736 148.536H74.3266ZM71.1944 156.508H74.0327L72.6144 152.823L71.1944 156.508Z" fill="white"/>
<path id="Vector_23" d="M89.1774 148.536H92.8607V161.416H89.1774L84.2663 154.363V161.416H80.583V148.536H84.2663L89.1774 155.588V148.536Z" fill="white"/>
<path id="Vector_24" d="M96.3137 150.204C97.6955 148.888 99.3585 148.23 101.303 148.23C103.247 148.23 104.91 148.888 106.291 150.204C107.673 151.52 108.364 153.11 108.364 154.976C108.364 156.842 107.673 158.431 106.291 159.748C104.91 161.065 103.247 161.722 101.303 161.722C99.3585 161.722 97.6955 161.063 96.3137 159.748C94.9319 158.433 94.241 156.842 94.241 154.976C94.241 153.11 94.9319 151.52 96.3137 150.204ZM98.9138 157.362C99.5729 158.02 100.369 158.349 101.303 158.349C102.237 158.349 103.032 158.02 103.691 157.362C104.351 156.704 104.679 155.909 104.679 154.976C104.679 154.043 104.351 153.248 103.691 152.59C103.032 151.931 102.237 151.603 101.303 151.603C100.369 151.603 99.5729 151.931 98.9138 152.59C98.2546 153.248 97.9258 154.043 97.9258 154.976C97.9258 155.909 98.2546 156.704 98.9138 157.362Z" fill="white"/>
<path id="Vector_25" d="M113.121 161.414L107.902 148.535H112.2L114.962 156.239L117.724 148.535H122.022L116.803 161.414H113.12H113.121Z" fill="white"/>
<path id="Vector_26" d="M126.628 161.414H122.945V148.535H126.628V161.414Z" fill="white"/>
<path id="Vector_27" d="M135.358 158.347C136.534 158.347 137.507 157.913 138.274 157.045L139.675 160.169C139.112 160.654 138.431 161.035 137.632 161.309C136.833 161.584 136.042 161.722 135.262 161.722C133.267 161.722 131.56 161.06 130.14 159.739C128.72 158.417 128.01 156.829 128.01 154.976C128.01 153.123 128.72 151.536 130.14 150.213C131.56 148.891 133.267 148.23 135.262 148.23C136.042 148.23 136.832 148.365 137.632 148.633C138.431 148.901 139.112 149.279 139.675 149.764L138.274 152.907C137.507 152.038 136.534 151.604 135.358 151.604C134.347 151.604 133.483 151.933 132.767 152.591C132.051 153.25 131.693 154.045 131.693 154.977C131.693 155.91 132.051 156.705 132.767 157.364C133.483 158.022 134.346 158.35 135.358 158.35V158.347ZM133.228 147.308L135.07 144.241H138.753L135.683 147.308H133.228Z" fill="white"/>
</g>
</g>
<defs>
<clipPath id="clip0_121_3699">
<rect width="157" height="161" fill="white" transform="translate(0 0.720215)"/>
</clipPath>
</defs>
</svg>
