<svg width="129" height="20" viewBox="0 0 129 20" fill="none" xmlns="http://www.w3.org/2000/svg">
<g clip-path="url(#clip0_89_2940)">
<path d="M63.4148 12.2927H63.3919V15.4485H61.6895V7.32052H63.3696V7.85397H63.3919C63.8805 7.35456 64.4709 7.12744 65.1402 7.12744C66.7866 7.12744 67.9674 8.35369 67.9674 10.0676C67.9674 11.7933 66.7981 12.9966 65.1631 12.9966C64.4817 12.9966 63.8124 12.7355 63.4148 12.2927ZM63.3919 10.0676C63.3919 11.0213 63.9823 11.6683 64.8341 11.6683C65.6854 11.6683 66.2872 11.0213 66.2872 10.0676C66.2872 9.12541 65.6854 8.4558 64.8341 8.4558C63.9823 8.4558 63.3919 9.11426 63.3919 10.0676Z" fill="#6F7785"/>
<path d="M69.1152 7.30907H70.7954V7.96753H70.8183C71.1364 7.42263 71.6924 7.12744 72.3057 7.12744C72.4985 7.12744 72.7027 7.13889 72.8955 7.19582V8.73955C72.6913 8.69407 72.5099 8.67147 72.328 8.67147C71.3858 8.67147 70.8183 9.26156 70.8183 10.2721V12.815H69.1152V7.30907Z" fill="#6F7785"/>
<path d="M73.418 10.0674C73.418 8.342 74.5873 7.1272 76.2446 7.1272C76.8579 7.1272 77.5163 7.33172 77.9928 7.84259H78.0157V7.30883H79.6959V12.8148H78.0157V12.2813H77.9928C77.5049 12.7919 76.8579 12.9964 76.2446 12.9964C74.5873 12.9964 73.418 11.7816 73.418 10.0674ZM77.9814 10.0674C77.9814 9.11402 77.4024 8.45556 76.5512 8.45556C75.6885 8.45556 75.0867 9.11402 75.0867 10.0674C75.0867 11.0096 75.6885 11.668 76.5512 11.668C77.4024 11.668 77.9814 11.0096 77.9814 10.0674Z" fill="#6F7785"/>
<path d="M87.1666 7.30883V12.9509C87.1666 14.563 85.9407 15.6414 84.1243 15.6414C82.3303 15.6414 81.2068 14.7103 81.0363 13.3482H82.7502C82.864 13.8931 83.3406 14.2564 84.1129 14.2564C84.9189 14.2564 85.4521 13.7455 85.4521 12.9624V12.2584H85.4298C84.9641 12.7352 84.3286 12.9735 83.6924 12.9735C82.0465 12.9735 80.8887 11.759 80.8887 10.0448C80.8887 8.342 82.058 7.1272 83.7038 7.1272C84.3852 7.1272 84.987 7.36576 85.4521 7.83114H85.4864V7.30883H87.1666ZM85.4521 10.0448C85.4521 9.11402 84.8617 8.45556 84.0219 8.45556C83.1707 8.45556 82.5574 9.11402 82.5574 10.0448C82.5574 10.987 83.1707 11.634 84.0219 11.634C84.8617 11.634 85.4521 10.987 85.4521 10.0448Z" fill="#6F7785"/>
<path d="M88.5859 7.30883H90.2661V7.84259H90.2884C90.7541 7.35431 91.3782 7.1272 91.9915 7.1272C92.6385 7.1272 93.2741 7.3998 93.6946 7.85373C94.2163 7.36576 94.9091 7.1272 95.5904 7.1272C97.0772 7.1272 98.1441 8.16037 98.1441 9.63602V12.8148H96.4302V9.86314C96.4302 9.09113 95.976 8.58026 95.2609 8.58026C94.6368 8.58026 94.2277 9.05709 94.2277 9.80651V12.8148H92.5138V9.86314C92.5138 9.09113 92.0939 8.58026 91.4354 8.58026C90.7426 8.58026 90.2884 9.05709 90.2884 9.80651V12.8148H88.5859V7.30883Z" fill="#6F7785"/>
<path d="M99.1914 10.0674C99.1914 8.342 100.361 7.1272 102.018 7.1272C102.631 7.1272 103.289 7.33172 103.766 7.84259H103.789V7.30883H105.469V12.8148H103.789V12.2813H103.766C103.278 12.7919 102.631 12.9964 102.018 12.9964C100.361 12.9964 99.1914 11.7816 99.1914 10.0674ZM103.755 10.0674C103.755 9.11402 103.176 8.45556 102.325 8.45556C101.461 8.45556 100.86 9.11402 100.86 10.0674C100.86 11.0096 101.461 11.668 102.325 11.668C103.176 11.668 103.755 11.0096 103.755 10.0674Z" fill="#6F7785"/>
<path d="M107.491 10.7827V8.68235H106.23V7.3088H107.491V5.56055H109.194V7.3088H110.987V8.68235H109.194V10.5896C109.194 11.1915 109.557 11.5204 110.216 11.5204C110.454 11.5204 110.715 11.4864 110.987 11.4638V12.8602C110.669 12.9509 110.272 12.9964 109.909 12.9964C108.456 12.9964 107.491 12.1108 107.491 10.7827Z" fill="#6F7785"/>
<path d="M112.191 4.05103H113.94V5.6062H112.191V4.05103ZM112.214 7.30898H113.917V12.8149H112.214V7.30898Z" fill="#6F7785"/>
<path d="M115.074 10.0674C115.074 8.29652 116.322 7.1272 118.196 7.1272C119.774 7.1272 120.932 8.02422 121.091 9.40891H119.479C119.365 8.92094 118.945 8.50104 118.196 8.50104C117.299 8.50104 116.709 9.12516 116.709 10.0674C116.709 11.0096 117.299 11.6228 118.196 11.6228C118.945 11.6228 119.365 11.2026 119.479 10.7144H121.091C120.932 12.1108 119.774 12.9964 118.196 12.9964C116.322 12.9964 115.074 11.8271 115.074 10.0674Z" fill="#6F7785"/>
<path d="M123.26 19.5961H5.0464C2.48156 19.5961 0.402344 17.5169 0.402344 14.952V5.04738C0.402344 2.48254 2.48156 0.40332 5.0464 0.40332H123.26C125.824 0.40332 127.904 2.48254 127.904 5.04738V14.952C127.904 17.5169 125.824 19.5961 123.26 19.5961Z" stroke="#6F7785" stroke-width="0.807243" stroke-miterlimit="10"/>
<path d="M8.71671 7.24707H10.0647L11.3103 11.0153H11.3418L12.611 7.24707H13.9512L15.4648 12.7653H14.1561L13.1471 9.12328H13.1155L11.9094 12.7653H10.7506L9.54445 9.13116H9.51291L8.51174 12.7653H7.20312L8.71671 7.24707Z" fill="#6F7785"/>
<path d="M19.6861 7.24701H20.8607L23.3045 12.7653H21.988L21.515 11.638H19.0318L18.5509 12.7653H17.2266L19.6861 7.24701ZM21.0972 10.621L20.2853 8.65811H20.2616L19.4418 10.621H21.0972Z" fill="#6F7785"/>
<path d="M30.7993 10.0062C30.7993 11.6774 29.5931 12.7653 27.709 12.7653H25.5254V7.24707H27.709C29.5931 7.24707 30.7993 8.33496 30.7993 10.0062ZM29.538 10.0062C29.538 8.98138 28.7733 8.30342 27.6223 8.30342H26.7631V11.709H27.6223C28.7733 11.709 29.538 11.031 29.538 10.0062Z" fill="#6F7785"/>
<path d="M34.517 8.27189V9.52532H37.1342V10.5423H34.517V11.7405H37.5047V12.7653H33.2793V7.24707H37.5047V8.27189H34.517Z" fill="#6F7785"/>
<path d="M43.5078 7.24707H46.2669C47.4179 7.24707 48.1589 7.81466 48.1589 8.67393C48.1589 9.22576 47.8672 9.69875 47.3233 9.89584V9.92737C48.0091 10.0693 48.4269 10.5896 48.4269 11.2833C48.4269 12.182 47.615 12.7653 46.3694 12.7653H43.5078V7.24707ZM46.0068 9.54109C46.5902 9.54109 46.9686 9.24153 46.9686 8.82372C46.9686 8.46897 46.6611 8.21671 46.0777 8.21671H44.7455V9.54109H46.0068ZM46.2433 11.7878C46.8267 11.7878 47.205 11.5277 47.205 11.1256C47.205 10.7236 46.8582 10.4634 46.3379 10.4634H44.7455V11.7878H46.2433Z" fill="#6F7785"/>
<path d="M52.5281 11.0468L50.2656 7.24707H51.6373L53.143 9.817L54.6645 7.24707H56.0362L53.7737 11.0389V12.7653H52.5281V11.0468Z" fill="#6F7785"/>
</g>
<defs>
<clipPath id="clip0_89_2940">
<rect width="128.309" height="20" fill="white"/>
</clipPath>
</defs>
</svg>
