<svg width="18" height="22" viewBox="0 0 18 22" fill="none" xmlns="http://www.w3.org/2000/svg">
<g id="ShapePt" clip-path="url(#clip0_121_3763)">
<path id="Vector" d="M8.94349 0.610199C3.16541 0.610199 0.0327148 4.36902 0.0327148 8.40628C0.0327148 10.2857 1.07695 12.6524 2.74772 13.418C3.02618 13.5573 3.16541 13.4877 3.23503 13.2788C3.30464 13.07 3.51349 12.1651 3.5831 11.7475C3.5831 11.6082 3.5831 11.469 3.51349 11.3994C2.95656 10.7729 2.53887 9.58961 2.53887 8.47589C2.53887 5.62196 4.76656 2.90726 8.66503 2.90726C12.0066 2.90726 14.3039 5.0651 14.3039 8.12785C14.3039 11.6082 12.4243 14.0445 10.0573 14.0445C8.73465 14.0445 7.76003 13.0004 8.03849 11.6778C8.38657 10.1465 9.15234 8.47589 9.15234 7.36216C9.15234 6.38765 8.59542 5.55236 7.41195 5.55236C6.08926 5.55236 4.97541 6.87491 4.97541 8.68471C4.97541 9.79844 5.3931 10.5641 5.3931 10.5641C5.3931 10.5641 4.07041 15.9935 3.79195 16.968C3.37426 18.7082 3.86156 21.4229 3.86156 21.7014C3.86156 21.8406 4.0008 21.8406 4.14003 21.771C4.27926 21.6318 5.88041 19.2651 6.36772 17.5945C6.50695 16.968 7.20311 14.5318 7.20311 14.5318C7.6208 15.3671 8.94349 15.9935 10.3358 15.9935C14.4431 15.9935 17.367 12.4435 17.367 7.98863C17.2973 3.81216 13.6773 0.610199 8.94349 0.610199Z" fill="#F1F2ED"/>
</g>
<defs>
<clipPath id="clip0_121_3763">
<rect width="17.2646" height="21.3" fill="white" transform="translate(0.0327148 0.610199)"/>
</clipPath>
</defs>
</svg>
