<svg width="10" height="20" viewBox="0 0 10 20" fill="none" xmlns="http://www.w3.org/2000/svg">
<g id="ShapeFb" clip-path="url(#clip0_121_3755)">
<path id="Vector" d="M2.19113 4.39862C2.19113 4.2699 2.19113 4.01247 2.25545 3.62632C2.31978 3.24018 2.44842 2.85403 2.70571 2.40352C2.963 1.95301 3.41326 1.56686 3.99216 1.24507C4.57106 0.923284 5.40726 0.730209 6.56506 0.730209H9.71686V4.14119H7.40125C7.14396 4.14119 6.951 4.20555 6.75803 4.39862C6.56506 4.5917 6.50074 4.72041 6.50074 4.91349V7.0373H9.71686C9.65254 7.42345 9.65254 7.87396 9.58822 8.26011L9.45957 9.28984C9.39525 9.61163 9.33093 9.93342 9.33093 10.2552H6.43642V19.7802H2.19113V10.2552H0.132812V7.0373H2.19113V4.39862Z" fill="#F1F2ED"/>
</g>
<defs>
<clipPath id="clip0_121_3755">
<rect width="9.58405" height="19.05" fill="white" transform="translate(0.132812 0.730209)"/>
</clipPath>
</defs>
</svg>
