<svg width="20" height="17" viewBox="0 0 20 17" fill="none" xmlns="http://www.w3.org/2000/svg">
<g id="ShapeTw" clip-path="url(#clip0_121_3759)">
<path id="Vector" d="M19.8871 2.33272C19.197 2.67763 18.4379 2.88458 17.6098 2.95356C18.4379 2.47069 19.059 1.71188 19.335 0.746129C18.5759 1.229 17.7478 1.50493 16.8507 1.71188C16.1606 0.953076 15.1255 0.4702 13.9524 0.4702C11.7441 0.4702 10.0189 2.26374 10.0189 4.40219C10.0189 4.67812 10.0879 5.02303 10.0879 5.29896C6.91353 5.161 4.01519 3.5744 2.01395 1.16002C1.66891 1.78086 1.53089 2.47069 1.53089 3.16051C1.53089 4.54016 2.22098 5.71285 3.2561 6.47166C2.63502 6.40268 2.01395 6.26471 1.46189 5.98878C1.46189 7.92029 2.84205 9.50688 4.63626 9.85179C4.29122 9.92078 3.94618 9.98976 3.60114 9.98976C3.32511 9.98976 3.11808 9.98976 2.84205 9.92078C3.32511 11.5074 4.77428 12.6111 6.49948 12.6801C5.11932 13.7148 3.46312 14.3356 1.5999 14.3356C1.25486 14.3356 0.97883 14.3356 0.633789 14.2667C2.35899 15.3704 4.42924 16.0602 6.7065 16.0602C14.0214 16.0602 17.9548 10.0587 17.9548 4.88507V4.40219C18.7139 3.78135 19.404 3.09153 19.8871 2.33272Z" fill="#F1F2ED"/>
</g>
<defs>
<clipPath id="clip0_121_3759">
<rect width="19.1843" height="15.59" fill="white" transform="translate(0.702881 0.4702)"/>
</clipPath>
</defs>
</svg>
