<svg width="20" height="20" viewBox="0 0 20 20" fill="none" xmlns="http://www.w3.org/2000/svg">
<g id="ShapeInsta" clip-path="url(#clip0_121_3767)">
<path id="Vector" d="M10.2369 19.8602C10.1729 19.8602 10.1089 19.8602 10.045 19.8602C8.50975 19.8602 7.16645 19.7962 5.82315 19.7323C4.60778 19.6683 3.45638 19.2205 2.56085 18.5169C1.66532 17.8133 1.08962 16.8538 0.769785 15.6384C0.513918 14.6149 0.513918 13.5915 0.449951 12.632C0.449951 11.9283 0.449951 11.0968 0.449951 10.2652C0.449951 9.43365 0.449951 8.60208 0.449951 7.89845C0.449951 6.93895 0.449951 5.91548 0.769785 4.89201C1.08962 3.67665 1.66532 2.71715 2.49688 2.01351C3.45638 1.30988 4.54382 0.862112 5.82315 0.798145C7.16645 0.734178 8.50975 0.670212 10.045 0.670212C11.5802 0.670212 12.9235 0.734178 14.2668 0.798145C15.4821 0.862112 16.6335 1.30988 17.5291 2.01351C18.4246 2.71715 19.0003 3.67665 19.3201 4.89201C19.576 5.91548 19.576 6.93895 19.64 7.89845C19.64 8.60208 19.64 9.43365 19.64 10.2652C19.64 11.0968 19.64 11.9283 19.64 12.632C19.64 13.5915 19.64 14.6149 19.3201 15.6384C19.0003 16.7898 18.4246 17.7493 17.5291 18.5169C16.6335 19.2205 15.4821 19.6683 14.2668 19.7323C12.9874 19.7962 11.6441 19.8602 10.2369 19.8602ZM10.045 18.389C11.5162 18.389 12.8595 18.325 14.2028 18.261C15.1623 18.1971 15.9299 17.8772 16.6335 17.3655C17.2732 16.8538 17.657 16.1501 17.9129 15.3186C18.1048 14.487 18.1687 13.5275 18.1687 12.632C18.1687 11.9283 18.1687 11.0968 18.1687 10.2652C18.1687 9.43365 18.1687 8.60208 18.1687 7.89845C18.1687 7.00291 18.1687 6.10738 17.9129 5.21184C17.721 4.31631 17.2732 3.67665 16.6335 3.16491C15.9939 2.65318 15.1623 2.33335 14.2028 2.26938C12.8595 2.20541 11.5162 2.14145 10.045 2.14145C8.57372 2.14145 7.23042 2.20541 5.88712 2.26938C4.92762 2.33335 4.16002 2.65318 3.45638 3.16491C2.81672 3.67665 2.43292 4.38028 2.17705 5.21184C1.98515 6.04341 1.92118 7.00291 1.92118 7.89845C1.92118 8.60208 1.92118 9.43365 1.92118 10.2652C1.92118 11.0968 1.92118 11.9283 1.92118 12.632C1.92118 13.5275 1.92118 14.423 2.17705 15.3186C2.36895 16.2141 2.81672 16.8538 3.45638 17.3655C4.09605 17.8772 4.92762 18.1971 5.88712 18.261C7.23042 18.325 8.57372 18.389 10.045 18.389ZM9.98098 14.9348C7.42232 14.9348 5.31142 12.8239 5.31142 10.2652C5.31142 7.70655 7.42232 5.59564 9.98098 5.59564C12.5397 5.59564 14.6506 7.70655 14.6506 10.2652C14.6506 12.8239 12.6036 14.9348 9.98098 14.9348ZM9.98098 7.06688C8.25388 7.06688 6.78265 8.47415 6.78265 10.2652C6.78265 12.0563 8.18992 13.4635 9.98098 13.4635C11.7081 13.4635 13.1793 12.0563 13.1793 10.2652C13.1793 8.47415 11.7721 7.06688 9.98098 7.06688ZM15.2263 4.06045C14.5866 4.06045 14.0749 4.57218 14.0749 5.21184C14.0749 5.85151 14.5866 6.36325 15.2263 6.36325C15.8659 6.36325 16.3777 5.85151 16.3777 5.21184C16.3777 4.57218 15.8659 4.06045 15.2263 4.06045Z" fill="#F1F2ED"/>
</g>
<defs>
<clipPath id="clip0_121_3767">
<rect width="19.19" height="19.19" fill="white" transform="translate(0.449951 0.670212)"/>
</clipPath>
</defs>
</svg>
